<?xml version="1.0" standalone="no"?>
<!DOCTYPE svg PUBLIC "-//W3C//DTD SVG 20010904//EN"
 "http://www.w3.org/TR/2001/REC-SVG-20010904/DTD/svg10.dtd">
<svg version="1.0" xmlns="http://www.w3.org/2000/svg"
 width="200.000000pt" height="200.000000pt" viewBox="0 0 200.000000 200.000000"
 preserveAspectRatio="xMidYMid meet">
<metadata>
Created by potrace 1.14, written by Peter Selinger 2001-2017
</metadata>
<g transform="translate(0.000000,200.000000) scale(0.100000,-0.100000)"
fill="#000000" stroke="none">
<path d="M960 1853 c-18 -20 -37 -49 -42 -65 l-10 -29 -18 28 c-9 15 -27 37
-40 48 l-23 20 22 -42 c11 -23 21 -51 21 -62 0 -14 8 -20 34 -23 33 -4 35 -2
41 32 4 19 17 56 29 83 13 26 22 47 21 47 -2 0 -17 -16 -35 -37z"/>
<path d="M1015 1823 c0 -32 -3 -71 -8 -88 -6 -27 -4 -32 24 -48 18 -10 32 -16
33 -15 1 2 10 21 20 44 10 23 29 53 42 68 36 38 11 32 -35 -9 l-39 -35 -6 54
c-4 29 -13 61 -19 70 -10 13 -12 6 -12 -41z"/>
<path d="M804 1681 c-23 -10 -55 -22 -73 -26 -51 -11 -82 -64 -65 -109 8 -20
24 -21 24 -1 0 30 53 13 103 -33 57 -54 60 -81 65 -594 2 -287 0 -468 -6 -468
-5 0 -22 10 -37 22 -55 43 -58 64 -64 418 -6 315 -7 327 -29 372 -26 53 -60
81 -124 104 l-42 15 26 -28 c64 -69 63 -57 66 -521 l3 -422 104 0 105 0 0
-150 0 -150 50 0 50 0 0 594 c0 619 -5 714 -42 793 -23 48 -66 90 -105 99 -37
10 -8 24 50 24 84 0 138 -35 174 -115 17 -37 18 -91 21 -717 l3 -678 49 0 50
0 0 150 0 150 104 0 105 0 3 422 3 423 28 47 c15 26 35 52 45 58 37 23 -44 -3
-87 -27 -31 -18 -49 -38 -64 -72 -21 -43 -22 -66 -27 -376 -6 -365 -10 -389
-69 -419 -16 -9 -33 -16 -36 -16 -3 0 -5 217 -5 482 0 524 -3 555 -54 643 -60
102 -202 152 -302 106z"/>
<path d="M155 1441 c-39 -10 -88 -36 -103 -54 -15 -17 -53 -127 -45 -127 3 0
21 12 40 26 90 69 217 88 301 45 62 -32 82 -79 82 -201 l0 -95 -98 0 c-82 0
-104 -4 -146 -24 -114 -56 -169 -155 -170 -306 -1 -76 3 -97 23 -135 30 -58
76 -106 126 -133 53 -28 183 -30 234 -4 42 21 41 21 41 -3 0 -18 7 -20 55 -20
l55 0 0 390 c0 242 -4 408 -11 440 -16 75 -65 139 -133 174 -47 25 -71 30
-139 32 -45 2 -95 0 -112 -5z m273 -646 c2 -150 1 -163 -20 -204 -31 -60 -66
-84 -122 -84 -121 0 -194 140 -152 287 32 110 114 168 231 163 l60 -2 3 -160z"/>
<path d="M1637 1437 c-51 -16 -103 -60 -127 -107 -33 -64 -40 -157 -40 -548
l0 -373 135 3 c142 3 170 14 94 35 -53 16 -96 56 -109 102 -5 20 -10 90 -10
156 l0 120 98 0 c82 0 104 4 146 24 117 58 170 154 171 311 0 92 -1 98 -35
154 -19 31 -50 69 -69 83 -64 49 -171 66 -254 40z m150 -96 c26 -12 52 -35 70
-62 25 -37 28 -52 28 -118 0 -92 -16 -141 -62 -192 -38 -42 -106 -69 -174 -69
-71 0 -69 -4 -69 164 1 195 19 248 95 282 41 18 63 17 112 -5z"/>
</g>
</svg>
